<svg width="21" height="18" viewBox="0 0 21 18" fill="none" xmlns="http://www.w3.org/2000/svg">
<path d="M19.5 7.5H18.5V6.5C18.5 6.23478 18.3946 5.98043 18.2071 5.79289C18.0196 5.60536 17.7652 5.5 17.5 5.5C17.2348 5.5 16.9804 5.60536 16.7929 5.79289C16.6054 5.98043 16.5 6.23478 16.5 6.5V7.5H15.5C15.2348 7.5 14.9804 7.60536 14.7929 7.79289C14.6054 7.98043 14.5 8.23478 14.5 8.5C14.5 8.76522 14.6054 9.01957 14.7929 9.20711C14.9804 9.39464 15.2348 9.5 15.5 9.5H16.5V10.5C16.5 10.7652 16.6054 11.0196 16.7929 11.2071C16.9804 11.3946 17.2348 11.5 17.5 11.5C17.7652 11.5 18.0196 11.3946 18.2071 11.2071C18.3946 11.0196 18.5 10.7652 18.5 10.5V9.5H19.5C19.7652 9.5 20.0196 9.39464 20.2071 9.20711C20.3946 9.01957 20.5 8.76522 20.5 8.5C20.5 8.23478 20.3946 7.98043 20.2071 7.79289C20.0196 7.60536 19.7652 7.5 19.5 7.5ZM11.8 9.22C12.3336 8.75813 12.7616 8.18688 13.0549 7.54502C13.3482 6.90316 13.5 6.20571 13.5 5.5C13.5 4.17392 12.9732 2.90215 12.0355 1.96447C11.0979 1.02678 9.82608 0.5 8.5 0.5C7.17392 0.5 5.90215 1.02678 4.96447 1.96447C4.02678 2.90215 3.5 4.17392 3.5 5.5C3.49999 6.20571 3.6518 6.90316 3.94513 7.54502C4.23845 8.18688 4.66642 8.75813 5.2 9.22C3.80014 9.85388 2.61247 10.8775 1.77898 12.1685C0.945495 13.4596 0.501472 14.9633 0.5 16.5C0.5 16.7652 0.605357 17.0196 0.792893 17.2071C0.98043 17.3946 1.23478 17.5 1.5 17.5C1.76522 17.5 2.01957 17.3946 2.20711 17.2071C2.39464 17.0196 2.5 16.7652 2.5 16.5C2.5 14.9087 3.13214 13.3826 4.25736 12.2574C5.38258 11.1321 6.9087 10.5 8.5 10.5C10.0913 10.5 11.6174 11.1321 12.7426 12.2574C13.8679 13.3826 14.5 14.9087 14.5 16.5C14.5 16.7652 14.6054 17.0196 14.7929 17.2071C14.9804 17.3946 15.2348 17.5 15.5 17.5C15.7652 17.5 16.0196 17.3946 16.2071 17.2071C16.3946 17.0196 16.5 16.7652 16.5 16.5C16.4985 14.9633 16.0545 13.4596 15.221 12.1685C14.3875 10.8775 13.1999 9.85388 11.8 9.22ZM8.5 8.5C7.90666 8.5 7.32664 8.32405 6.83329 7.99441C6.33994 7.66476 5.95542 7.19623 5.72836 6.64805C5.5013 6.09987 5.44189 5.49667 5.55764 4.91473C5.6734 4.33279 5.95912 3.79824 6.37868 3.37868C6.79824 2.95912 7.33279 2.6734 7.91473 2.55764C8.49667 2.44189 9.09987 2.5013 9.64805 2.72836C10.1962 2.95542 10.6648 3.33994 10.9944 3.83329C11.3241 4.32664 11.5 4.90666 11.5 5.5C11.5 6.29565 11.1839 7.05871 10.6213 7.62132C10.0587 8.18393 9.29565 8.5 8.5 8.5Z" fill="#3C3B3B"/>
</svg>
