<svg width="22" height="22" viewBox="0 0 22 22" fill="none" xmlns="http://www.w3.org/2000/svg">
<path d="M8.94753 13.1695C8.42044 12.6434 8.09961 11.9284 8.09961 11.1263C8.09961 9.51937 9.39394 8.22412 10.9999 8.22412C11.7947 8.22412 12.5262 8.54587 13.0441 9.07204" stroke="#9EA1AE" stroke-width="1.5" stroke-linecap="round" stroke-linejoin="round"/>
<path d="M13.8461 11.6406C13.6334 12.8231 12.7021 13.7563 11.5205 13.9708" stroke="#9EA1AE" stroke-width="1.5" stroke-linecap="round" stroke-linejoin="round"/>
<path d="M6.10009 16.0165C4.64534 14.8743 3.41334 13.206 2.52051 11.1261C3.42251 9.03697 4.66276 7.35947 6.12667 6.20814C7.58142 5.05681 9.25984 4.43164 10.9997 4.43164C12.7496 4.43164 14.4271 5.06597 15.891 6.22556" stroke="#9EA1AE" stroke-width="1.5" stroke-linecap="round" stroke-linejoin="round"/>
<path d="M17.827 8.2417C18.4577 9.07953 19.0123 10.0466 19.4789 11.1255C17.6758 15.3028 14.4895 17.819 10.9997 17.819C10.2086 17.819 9.42854 17.6907 8.67871 17.4404" stroke="#9EA1AE" stroke-width="1.5" stroke-linecap="round" stroke-linejoin="round"/>
<path d="M18.23 3.89551L3.77051 18.355" stroke="#9EA1AE" stroke-width="1.5" stroke-linecap="round" stroke-linejoin="round"/>
</svg>
